<svg width="20" height="18" viewBox="0 0 20 18" fill="none" xmlns="http://www.w3.org/2000/svg">
<path d="M18.5 1H16V0.5C16 0.22 15.78 0 15.5 0C15.22 0 15 0.22 15 0.5V1H5V0.5C5 0.22 4.78 0 4.5 0C4.22 0 4 0.22 4 0.5V1H1.5C0.67 1 0 1.67 0 2.5V16.5C0 17.33 0.67 18 1.5 18H18.5C19.33 18 20 17.33 20 16.5V2.5C20 1.67 19.33 1 18.5 1ZM1.5 2H4V3.5C4 3.78 4.22 4 4.5 4C4.78 4 5 3.78 5 3.5V2H15V3.5C15 3.78 15.22 4 15.5 4C15.78 4 16 3.78 16 3.5V2H18.5C18.78 2 19 2.22 19 2.5V5H1V2.5C1 2.22 1.22 2 1.5 2ZM18.5 17H1.5C1.22 17 1 16.78 1 16.5V6H19V16.5C19 16.78 18.78 17 18.5 17Z" fill="white"/>
<path d="M15.5 10H4.5C4.22 10 4 9.78 4 9.5C4 9.22 4.22 9 4.5 9H15.5C15.78 9 16 9.22 16 9.5C16 9.78 15.78 10 15.5 10Z" fill="white"/>
<path d="M15.5 12H4.5C4.22 12 4 11.78 4 11.5C4 11.22 4.22 11 4.5 11H15.5C15.78 11 16 11.22 16 11.5C16 11.78 15.78 12 15.5 12Z" fill="white"/>
<path d="M9.5 14H4.5C4.22 14 4 13.78 4 13.5C4 13.22 4.22 13 4.5 13H9.5C9.78 13 10 13.22 10 13.5C10 13.78 9.78 14 9.5 14Z" fill="white"/>
</svg>
